<svg width="19" height="18" viewBox="0 0 19 18" fill="none" xmlns="http://www.w3.org/2000/svg">
<path d="M14.5972 3.20936C14.3886 3.20836 14.1845 3.26955 14.0106 3.38518C13.8367 3.50081 13.701 3.66568 13.6205 3.8589C13.54 4.05212 13.5184 4.265 13.5584 4.47055C13.5985 4.6761 13.6984 4.86508 13.8455 5.01354C13.9926 5.162 14.1803 5.26327 14.3847 5.3045C14.5892 5.34574 14.8012 5.32508 14.994 5.24516C15.1867 5.16524 15.3515 5.02965 15.4675 4.85557C15.5835 4.68148 15.6454 4.47674 15.6454 4.26729C15.646 4.1286 15.6194 3.99115 15.567 3.86282C15.5146 3.7345 15.4376 3.61783 15.3402 3.51953C15.2428 3.42122 15.127 3.34322 14.9995 3.28999C14.872 3.23676 14.7352 3.20936 14.5972 3.20936Z" fill="#3D3D3D"/>
<path d="M9.92222 4.56739C9.04821 4.56638 8.19355 4.82577 7.46641 5.31273C6.73928 5.79968 6.17236 6.49231 5.83742 7.30293C5.50249 8.11356 5.41461 9.00573 5.58487 9.86654C5.75514 10.7274 6.17591 11.5181 6.79393 12.1387C7.41195 12.7592 8.19943 13.1817 9.0567 13.3527C9.91397 13.5237 10.8025 13.4354 11.6098 13.0991C12.4171 12.7628 13.1068 12.1935 13.5918 11.4634C14.0767 10.7333 14.335 9.87508 14.334 8.99745C14.3314 7.82335 13.8657 6.6981 13.0389 5.86789C12.2121 5.03767 11.0915 4.57007 9.92222 4.56739ZM9.92222 11.8406C9.36199 11.8416 8.81403 11.6757 8.34773 11.3639C7.88143 11.0521 7.51774 10.6085 7.30265 10.089C7.08757 9.56958 7.03077 8.99776 7.13945 8.4459C7.24813 7.89405 7.51739 7.38696 7.91318 6.98883C8.30897 6.59069 8.8135 6.3194 9.36289 6.20928C9.91228 6.09916 10.4819 6.15518 10.9995 6.37022C11.5172 6.58526 11.9597 6.94968 12.2711 7.41734C12.5824 7.88501 12.7486 8.43491 12.7486 8.99745C12.7506 9.37168 12.679 9.74262 12.538 10.089C12.3969 10.4354 12.1891 10.7504 11.9265 11.0159C11.6639 11.2815 11.3517 11.4924 11.0077 11.6365C10.6638 11.7807 10.2949 11.8552 9.92222 11.8559V11.8406Z" fill="#3D3D3D"/>
<path d="M13.4274 18H6.27014C4.84252 17.9987 3.47376 17.4286 2.46428 16.415C1.4548 15.4013 0.887083 14.0269 0.885742 12.5934V5.40661C0.887083 3.9731 1.4548 2.59869 2.46428 1.58505C3.47376 0.571402 4.84252 0.00134665 6.27014 0H13.4274C14.8541 0.00269228 16.2216 0.573341 17.23 1.58684C18.2383 2.60034 18.8054 3.97398 18.8067 5.40661V12.5934C18.8054 14.026 18.2383 15.3997 17.23 16.4132C16.2216 17.4267 14.8541 17.9973 13.4274 18ZM6.27014 1.68353C5.28987 1.68487 4.35015 2.07648 3.65699 2.7725C2.96384 3.46851 2.57383 4.41213 2.57249 5.39644V12.5832C2.57383 13.5675 2.96384 14.5111 3.65699 15.2072C4.35015 15.9032 5.28987 16.2948 6.27014 16.2961H13.4274C14.4072 16.2934 15.3462 15.9014 16.0391 15.2057C16.7319 14.5099 17.1224 13.5671 17.125 12.5832V5.40661C17.1224 4.42271 16.7319 3.47988 16.0391 2.78415C15.3462 2.08843 14.4072 1.69638 13.4274 1.6937L6.27014 1.68353Z" fill="#3D3D3D"/>
</svg>
