<svg width="23" height="18" viewBox="0 0 23 18" fill="none" xmlns="http://www.w3.org/2000/svg">
<path d="M22.2172 2.1546C21.5086 2.45945 20.7638 2.67174 20.0009 2.7862C20.3576 2.72508 20.8823 2.0782 21.0912 1.81843C21.4195 1.4231 21.6686 0.968296 21.8249 0.478835C21.8249 0.44318 21.8605 0.392244 21.8249 0.366776C21.8067 0.357791 21.7866 0.353113 21.7663 0.353113C21.746 0.353113 21.7259 0.357791 21.7077 0.366776C20.8794 0.815222 19.9978 1.15749 19.0838 1.38548C19.0515 1.39458 19.0174 1.39464 18.985 1.38566C18.9527 1.37668 18.9234 1.359 18.9004 1.33454C18.8306 1.25031 18.7539 1.17195 18.6712 1.10025C18.2916 0.775807 17.8636 0.512839 17.4026 0.320929C16.784 0.0710391 16.1168 -0.0351919 15.4512 0.0102305C14.8043 0.0487065 14.1726 0.222215 13.5967 0.519584C13.0216 0.821943 12.5137 1.23781 12.1039 1.74203C11.678 2.26269 11.3734 2.87169 11.2123 3.52476C11.0751 4.14406 11.0595 4.78413 11.1665 5.40937C11.1665 5.51633 11.1665 5.53162 11.0748 5.51634C7.46763 5.00698 4.47695 3.68776 2.05181 0.932159C1.94481 0.815007 1.88878 0.815007 1.80216 0.932159C0.742437 2.52643 1.25703 5.08339 2.58169 6.3364C2.76001 6.50448 2.94341 6.67257 3.13701 6.84575C2.52805 6.79376 1.93564 6.62058 1.39458 6.3364C1.29269 6.27018 1.23663 6.31093 1.22644 6.42808C1.22241 6.59842 1.23264 6.76879 1.25701 6.93743C1.36383 7.74947 1.6842 8.51865 2.18543 9.1665C2.68666 9.81435 3.35082 10.3177 4.11014 10.6252C4.29465 10.7051 4.48787 10.7632 4.68586 10.7983C4.12397 10.9114 3.54717 10.9304 2.97907 10.8544C2.85679 10.8544 2.80585 10.89 2.8568 11.0123C3.60574 13.0497 5.23099 13.666 6.42319 14.0174C6.58622 14.0429 6.74926 14.0429 6.93267 14.0837C6.93267 14.0837 6.93267 14.0837 6.9021 14.1091C6.49961 14.7254 5.10363 15.1839 4.45149 15.408C3.26056 15.8329 1.99201 15.9962 0.73226 15.8868C0.533561 15.8562 0.487699 15.8562 0.43675 15.8868C0.385802 15.9173 0.436743 15.9683 0.492786 16.0192C0.747528 16.1873 1.00228 16.335 1.26721 16.4776C2.05595 16.9012 2.88999 17.2344 3.7535 17.4709C8.22676 18.7086 13.2605 17.8019 16.618 14.4657C19.2571 11.8476 20.1844 8.23628 20.1844 4.61987C20.1844 4.47725 20.3525 4.40085 20.4493 4.32445C21.1186 3.80649 21.709 3.19395 22.2019 2.50606C22.2779 2.40658 22.3191 2.28487 22.3191 2.15969C22.3089 2.09857 22.3038 2.11385 22.2172 2.1546Z" fill="#3D3D3D"/>
</svg>
