<svg width="19" height="18" viewBox="0 0 19 18" fill="none" xmlns="http://www.w3.org/2000/svg">
<path d="M0.732056 18L2.01231 13.2094C0.972853 11.3402 0.641931 9.15847 1.08032 7.06477C1.5187 4.97107 2.69695 3.10586 4.3988 1.81152C6.10065 0.517172 8.21192 -0.11945 10.345 0.0185129C12.4781 0.156475 14.4899 1.05977 16.0111 2.56257C17.5323 4.06537 18.4609 6.06685 18.6263 8.1996C18.7917 10.3324 18.183 12.4533 16.9117 14.173C15.6405 15.8928 13.7921 17.096 11.7059 17.5617C9.61964 18.0275 7.43553 17.7246 5.55446 16.7086L0.732056 18ZM5.79228 14.916L6.09588 15.0932C7.60777 15.9975 9.39814 16.3168 11.1291 15.9908C12.8601 15.6647 14.4119 14.7159 15.4919 13.3234C16.5718 11.9309 17.1051 10.1909 16.9911 8.43191C16.8771 6.6729 16.1236 5.01647 14.873 3.77521C13.6224 2.53395 11.9611 1.7937 10.2026 1.69415C8.44401 1.59461 6.70986 2.14265 5.32737 3.23486C3.94487 4.32708 3.00965 5.88792 2.69817 7.62284C2.3867 9.35777 2.7205 11.1468 3.63662 12.6523L3.81878 12.9612L3.1053 15.6351L5.79228 14.916Z" fill="#3D3D3D"/>
<path fill-rule="evenodd" clip-rule="evenodd" d="M13.0284 10.176C12.8524 10.0346 12.6467 9.93514 12.4266 9.88513C12.2066 9.83512 11.978 9.83586 11.7583 9.8873C11.4294 10.024 11.2219 10.5355 11.0094 10.7988C10.9637 10.8611 10.897 10.9047 10.8216 10.9215C10.7462 10.9383 10.6673 10.9271 10.5995 10.89C9.39534 10.418 8.38601 9.55244 7.73543 8.4339C7.68229 8.36319 7.65748 8.27513 7.66591 8.18705C7.67434 8.09897 7.71537 8.01722 7.78096 7.95788C8.01923 7.72401 8.19348 7.43281 8.28698 7.11218C8.30806 6.75922 8.22725 6.40764 8.0542 6.09936C7.88215 5.72969 7.68988 5.19795 7.31543 4.99033C7.13652 4.90735 6.93727 4.87847 6.7422 4.90726C6.54712 4.93605 6.36472 5.02124 6.21736 5.15237C5.96455 5.37006 5.76406 5.64205 5.63089 5.94807C5.49771 6.25408 5.43527 6.58622 5.4482 6.91974C5.44981 7.10727 5.47187 7.29406 5.51399 7.4768C5.63102 7.91529 5.81356 8.33357 6.05543 8.71749C6.22748 9.01121 6.4147 9.29986 6.61205 9.57333C7.27099 10.4756 8.09735 11.2424 9.04602 11.8319C9.52314 12.1298 10.0324 12.3727 10.5641 12.5561C11.117 12.8063 11.7271 12.9026 12.3301 12.8346C12.674 12.7816 12.9998 12.6456 13.2793 12.4382C13.5588 12.2309 13.7836 11.9584 13.9342 11.6445C14.0194 11.4541 14.0458 11.2425 14.0101 11.0369C13.9342 10.6165 13.3826 10.3684 13.0284 10.176Z" fill="#3D3D3D"/>
</svg>
