<svg width="21" height="18" viewBox="0 0 21 18" fill="none" xmlns="http://www.w3.org/2000/svg">
<path d="M20.4905 5.64244C20.4905 4.14597 20.0301 2.7108 19.2105 1.65264C18.3909 0.59448 17.2794 0 16.1204 0H4.94849C3.78945 0 2.67791 0.59448 1.85835 1.65264C1.03879 2.7108 0.578369 4.14597 0.578369 5.64244V12.3576C0.578369 13.854 1.03879 15.2892 1.85835 16.3474C2.67791 17.4055 3.78945 18 4.94849 18H16.1204C17.2794 18 18.3909 17.4055 19.2105 16.3474C20.0301 15.2892 20.4905 13.854 20.4905 12.3576V5.64244ZM13.9214 9.50417L8.93646 12.7008C8.73706 12.8439 8.0724 12.6579 8.0724 12.3719V5.79977C8.0724 5.50656 8.74261 5.32063 8.94201 5.47081L13.7386 8.8391C13.9103 8.98213 14.1208 9.36115 13.9214 9.50417Z" fill="#3D3D3D"/>
</svg>
